<?xml version="1.0" standalone="no"?>
<!DOCTYPE svg PUBLIC "-//W3C//DTD SVG 20010904//EN"
 "http://www.w3.org/TR/2001/REC-SVG-20010904/DTD/svg10.dtd">
<svg version="1.0" xmlns="http://www.w3.org/2000/svg"
 width="250.000000pt" height="158.000000pt" viewBox="0 0 250.000000 158.000000"
 preserveAspectRatio="xMidYMid meet">

<g transform="translate(0.000000,158.000000) scale(0.100000,-0.100000)"
fill="#000000" stroke="none">
<path d="M1440 1334 c-33 -20 -97 -106 -123 -164 -11 -25 -22 -74 -24 -110 -4
-54 0 -73 19 -109 35 -68 66 -86 148 -86 59 0 72 4 96 25 75 69 71 205 -8 246
-18 10 -56 18 -85 18 l-51 1 16 28 c9 15 31 42 49 60 38 37 44 81 14 97 -24
12 -21 13 -51 -6z m64 -280 c9 -8 16 -28 16 -44 0 -60 -69 -81 -115 -35 -32
31 -31 38 6 69 35 29 70 33 93 10z"/>
<path d="M1041 1317 c-13 -6 -33 -24 -44 -38 -15 -22 -17 -30 -8 -48 7 -11 18
-21 26 -21 12 0 15 -23 15 -133 0 -133 0 -134 -25 -145 -29 -14 -36 -66 -9
-76 20 -8 113 -8 153 0 25 5 31 11 31 33 0 31 -16 51 -42 51 -17 0 -18 14 -18
185 0 172 -1 185 -19 195 -25 13 -31 13 -60 -3z"/>
<path d="M485 360 c-8 -14 3 -30 21 -30 20 0 18 -18 -3 -23 -14 -4 -12 -5 5
-6 25 -1 31 26 7 35 -20 8 -19 21 3 27 13 4 12 5 -5 6 -12 0 -25 -3 -28 -9z"/>
<path d="M593 335 c0 -22 2 -30 4 -17 2 12 2 30 0 40 -3 9 -5 -1 -4 -23z"/>
<path d="M669 356 c10 -11 10 -20 0 -38 -9 -19 -9 -21 2 -11 9 9 16 10 26 2 9
-8 13 -8 13 -1 0 6 -5 14 -10 17 -7 4 -6 14 2 28 10 20 10 21 -5 8 -11 -9 -17
-10 -17 -2 0 6 -5 11 -11 11 -8 0 -8 -4 0 -14z"/>
<path d="M767 362 c6 -4 13 -21 16 -37 l4 -30 2 32 c0 17 7 34 14 36 6 3 -1 6
-18 6 -16 0 -25 -3 -18 -7z"/>
<path d="M870 335 c0 -30 3 -35 23 -34 16 1 18 2 5 6 -10 2 -18 8 -18 13 0 5
8 11 18 13 16 4 16 5 0 6 -10 0 -18 5 -18 10 0 5 8 12 18 14 13 4 11 5 -5 6
-20 1 -23 -4 -23 -34z"/>
<path d="M970 335 c0 -32 3 -35 28 -34 l27 1 -25 7 c-23 7 -24 8 -6 18 18 10
18 10 0 18 -17 7 -17 9 6 15 l25 8 -27 1 c-25 1 -28 -2 -28 -34z"/>
<path d="M1081 335 c1 -40 1 -40 10 -10 5 18 5 33 -1 39 -7 7 -10 -4 -9 -29z"/>
<path d="M1120 349 c0 -11 -4 -17 -10 -14 -16 10 -12 -11 5 -25 13 -11 15 -7
15 24 0 20 -2 36 -5 36 -3 0 -5 -9 -5 -21z"/>
<path d="M1271 334 c1 -24 3 -30 6 -16 2 12 9 20 14 17 15 -10 10 12 -6 25
-13 11 -15 7 -14 -26z"/>
<path d="M1307 343 c-3 -16 -1 -32 4 -37 5 -6 9 4 9 27 0 44 -6 48 -13 10z"/>
<path d="M1391 339 c-13 -39 -14 -42 -1 -34 6 3 10 15 10 26 0 11 5 17 10 14
6 -4 8 -10 5 -15 -3 -4 2 -13 9 -19 12 -10 13 -7 4 23 -14 44 -23 45 -37 5z"/>
<path d="M1503 335 c0 -22 2 -30 4 -17 2 12 2 30 0 40 -3 9 -5 -1 -4 -23z"/>
<path d="M1572 338 c-2 -35 0 -38 26 -37 22 1 23 2 5 6 -16 3 -23 13 -26 36
-4 31 -4 31 -5 -5z"/>
<path d="M1750 335 c0 -32 3 -36 23 -33 32 4 31 62 -1 66 -19 3 -22 -1 -22
-33z m30 15 c0 -5 -4 -10 -10 -10 -5 0 -10 5 -10 10 0 6 5 10 10 10 6 0 10 -4
10 -10z m5 -30 c-3 -5 -10 -10 -16 -10 -5 0 -9 5 -9 10 0 6 7 10 16 10 8 0 12
-4 9 -10z"/>
<path d="M1877 363 c-4 -6 -11 -23 -17 -38 -9 -25 -9 -26 5 -15 12 10 18 10
31 -1 15 -12 16 -11 9 11 -12 39 -22 54 -28 43z m13 -23 c0 -5 -5 -10 -11 -10
-5 0 -7 5 -4 10 3 6 8 10 11 10 2 0 4 -4 4 -10z"/>
<path d="M1971 333 c1 -21 3 -30 6 -20 6 21 12 22 27 2 9 -12 11 -9 11 17 0
27 -4 34 -22 36 -21 3 -23 -1 -22 -35z m39 17 c0 -5 -7 -10 -15 -10 -8 0 -15
5 -15 10 0 6 7 10 15 10 8 0 15 -4 15 -10z"/>
</g>
</svg>
